HIERARCHY
ROOT hip
{
	OFFSET 0.000000 0.000000 0.000000 
	CHANNELS 6 Xposition Yposition Zposition Xrotation Zrotation Yrotation
	JOINT abdomen
	{
		OFFSET 0.000000 3.402643 0.000000 
		CHANNELS 3 Xrotation Zrotation Yrotation
		JOINT chest
		{
			OFFSET 0.000000 8.438565 -0.680529 
			CHANNELS 3 Xrotation Zrotation Yrotation
			JOINT neck
			{
				OFFSET 0.000000 10.207942 -0.272212 
				CHANNELS 3 Xrotation Zrotation Yrotation
				JOINT head
				{
					OFFSET 0.000000 3.130431 0.000000 
					CHANNELS 3 Xrotation Zrotation Yrotation
					End Site
					{
						OFFSET 0.000000 3.130435 0.000000 
					}
				}
			}
			JOINT lCollar
			{
				OFFSET 3.470700 6.669187 -0.816635 
				CHANNELS 3 Yrotation Zrotation Xrotation
				JOINT lShldr
				{
					OFFSET 3.198488 0.000000 0.000000 
					CHANNELS 3 Zrotation Yrotation Xrotation
					JOINT lForeArm
					{
						OFFSET 10.139888 0.000000 0.000000 
						CHANNELS 3 Yrotation Zrotation Xrotation
						JOINT lHand
						{
							OFFSET 8.370511 0.000000 0.000000 
							CHANNELS 3 Zrotation Yrotation Xrotation
							End Site
							{
								OFFSET 4.083176 0.000000 0.000000 
							}
						}
					}
				}
			}
			JOINT rCollar
			{
				OFFSET -3.470700 6.669187 -0.816635 
				CHANNELS 3 Yrotation Zrotation Xrotation
				JOINT rShldr
				{
					OFFSET -3.198488 0.000000 0.000000 
					CHANNELS 3 Zrotation Yrotation Xrotation
					JOINT rForeArm
					{
						OFFSET -10.139888 0.000000 0.000000 
						CHANNELS 3 Yrotation Zrotation Xrotation
						JOINT rHand
						{
							OFFSET -8.370511 0.000000 0.000000 
							CHANNELS 3 Zrotation Yrotation Xrotation
							End Site
							{
								OFFSET -4.083176 0.000000 0.000000 
							}
						}
					}
				}
			}
		}
	}
	JOINT lThigh
	{
		OFFSET 5.308129 -1.633274 1.361059 
		CHANNELS 3 Xrotation Zrotation Yrotation
		JOINT lShin
		{
			OFFSET -2.041588 -20.007561 0.000000 
			CHANNELS 3 Xrotation Zrotation Yrotation
			JOINT lFoot
			{
				OFFSET 0.000000 -19.190928 -1.224953 
				CHANNELS 3 Xrotation Yrotation Zrotation
				End Site
				{
					OFFSET 0.000000 -2.449906 4.627600 
				}
			}
		}
	}
	JOINT rThigh
	{
		OFFSET -5.308129 -1.633274 1.361059 
		CHANNELS 3 Xrotation Zrotation Yrotation
		JOINT rShin
		{
			OFFSET 2.041588 -20.007561 0.000000 
			CHANNELS 3 Xrotation Zrotation Yrotation
			JOINT rFoot
			{
				OFFSET 0.000000 -19.190928 -1.224953 
				CHANNELS 3 Xrotation Yrotation Zrotation
				End Site
				{
					OFFSET 0.000000 -2.449906 4.627600 
				}
			}
		}
	}
}
MOTION
Frames: 20
Frame Time: 0.016667
-0.033309 52.157818 -1.108837 -8.419592 -0.380856 0.244135 28.196232 0.342035 0.014174 -0.143036 2.860593 -1.944665 -8.835082 -2.643306 0.350457 10.119582 1.054050 -1.992389 -5.164123 -11.967879 -0.633518 -59.912132 2.383880 -6.022532 -18.551884 -5.000000 37.676804 -24.236889 -2.875713 16.537846 1.040573 15.001587 -0.792097 66.013733 2.479838 1.254437 93.173409 -5.000000 1.118577 -4.110361 -1.073735 -14.747149 15.612626 20.134712 4.466623 5.629234 -7.144031 -1.001081 -9.551710 10.419652 -9.719213 11.313513 -12.536258 -19.556353 19.362394 2.339870 0.863535 -16.026094 -2.705150 8.919867 
-0.116806 52.083813 -1.132877 -7.940497 0.107417 -0.556640 27.977188 -0.018889 -0.385787 -0.294326 2.948148 -2.296897 -9.078783 -2.497010 0.338207 10.103129 0.800658 -1.005898 -5.337704 -11.772810 -0.623460 -60.030872 2.132788 -5.499142 -18.492882 -5.000000 37.978367 -24.185776 -3.015477 16.960632 0.921992 14.904071 -0.787050 66.410019 3.234456 3.155041 92.878220 -5.000000 1.043918 -3.885390 -1.007451 -14.653817 15.445404 19.498339 5.065102 5.563153 -6.971520 -0.969475 -10.388445 10.633666 -9.922573 9.548841 -13.543796 -18.901621 21.727758 2.534383 1.077987 -17.205704 -2.555903 8.756359 
-0.248347 52.013241 -1.114196 -7.430929 0.312369 -1.660132 27.613821 0.010721 -0.635382 -0.485947 3.035614 -2.677914 -9.176214 -2.458388 0.332367 10.168850 0.449210 0.361394 -5.539900 -11.695702 -0.609915 -60.052620 2.125790 -5.198360 -18.630854 -5.000000 38.139229 -24.294331 -3.172128 17.344028 0.913285 14.796647 -0.790936 66.769020 3.936386 5.108612 92.325455 -5.000000 0.861177 -3.737080 -0.957473 -14.931125 15.355190 19.096573 6.133263 5.768739 -6.737432 -0.962737 -11.012381 10.774993 -10.117958 8.052241 -14.086948 -17.979017 23.266932 2.648408 1.224235 -18.259527 -2.164185 8.710426 
-0.411917 51.944942 -1.067032 -6.901566 0.321827 -2.988289 27.151520 0.276418 -0.820257 -0.688644 3.122977 -3.108260 -9.195914 -2.487354 0.336747 10.293983 0.029279 1.982427 -5.754744 -11.695702 -0.609915 -60.027466 2.276855 -5.044128 -18.898180 -5.000000 38.208828 -24.501503 -3.335307 17.696304 0.970351 14.689370 -0.785383 67.128479 4.612909 7.103514 91.600853 -5.000000 0.599287 -3.649734 -0.908801 -15.452878 15.305674 18.831932 7.514242 6.136232 -6.470653 -0.989295 -11.466311 10.888961 -10.336346 6.742986 -14.300328 -16.882669 24.263382 2.701403 1.297758 -19.207237 -1.672395 8.773549 
-0.591970 51.878071 -1.011029 -6.424488 0.233664 -4.462894 26.756340 0.657323 -0.928132 -0.871369 3.220069 -3.480069 -9.254565 -2.497010 0.338207 10.364711 -0.399551 3.710984 -5.942301 -11.694689 -0.619426 -59.999775 2.375761 -4.897224 -19.158710 -5.000000 38.229168 -24.713884 -3.451232 18.074030 0.995864 14.601768 -0.768927 67.426842 5.319813 9.116706 90.716736 -5.000000 0.280124 -3.466262 -0.880187 -16.109976 15.262015 18.709673 8.913836 6.748294 -6.194901 -1.036242 -11.837974 11.148492 -10.563993 5.513729 -14.350550 -15.510296 25.074203 2.740477 1.367352 -20.049356 -1.291552 8.945441 
-0.837933 51.816898 -0.919656 -6.120569 -0.358932 -6.601738 26.674147 1.429893 -0.784962 -0.943730 3.375885 -3.695253 -9.538018 -2.397531 0.342903 10.285066 -0.835426 5.879420 -6.000679 -11.675177 -0.618419 -60.030445 2.278795 -4.716322 -19.417850 -5.000000 38.059116 -24.901831 -3.425184 18.557810 0.917197 14.562759 -0.766912 67.434181 6.219602 11.181423 89.200348 -5.000000 -0.246993 -2.942197 -0.865659 -17.293570 15.258480 18.990194 10.355170 8.365035 -5.897219 -1.109869 -12.043571 12.043934 -10.709592 4.588350 -13.806929 -13.020931 25.329929 2.819224 1.438831 -20.480013 -1.206358 9.643490 
-1.083897 51.755722 -0.828285 -5.783780 -0.936265 -8.741450 26.583012 2.215747 -0.647946 -1.017826 3.541384 -3.911012 -9.821043 -2.299513 0.337953 10.192202 -1.266729 8.039019 -6.049182 -11.645910 -0.616909 -60.051712 2.182820 -4.534532 -19.680916 -5.000000 37.879967 -25.090267 -3.400456 19.033041 0.848297 14.523755 -0.764895 67.486046 7.103400 13.255981 87.685776 -5.000000 -0.741400 -2.420266 -0.830364 -18.487999 15.241607 19.295561 11.818895 9.980386 -5.582267 -1.203431 -12.185603 12.933242 -10.883153 3.680274 -13.220662 -10.531345 25.585253 2.907763 1.493258 -20.919640 -1.113753 10.382716 
-1.326268 51.703671 -0.701730 -5.706625 -1.445925 -11.322100 26.763792 2.906721 -0.571642 -0.960686 3.872341 -4.244431 -9.879808 -2.328479 0.342332 10.018483 -1.861440 10.728353 -6.135497 -11.685948 -0.609411 -59.949696 2.209171 -4.756810 -20.169912 -5.000000 37.716518 -25.347382 -3.411710 19.547089 1.064853 14.465063 -0.773764 67.274078 8.013467 14.911368 85.601463 -5.000000 -1.383529 -0.109344 -1.183832 -18.968899 14.987037 19.382582 13.510941 12.919069 -4.929126 -1.300586 -12.365367 13.840493 -10.973562 2.937942 -12.848804 -7.795752 25.870529 3.151100 1.641465 -21.132753 -0.989491 10.856564 
-1.567741 51.653908 -0.566379 -5.679511 -1.932873 -14.022004 27.002321 3.582498 -0.510657 -0.880507 4.242030 -4.607869 -9.880220 -2.396068 0.352550 9.793719 -2.477993 13.548017 -6.233580 -11.724957 -0.611425 -59.813782 2.281548 -5.088946 -20.709009 -5.000000 37.562527 -25.618420 -3.423902 20.066080 1.366637 14.396748 -0.767797 67.009102 8.930718 16.457270 83.414253 -5.000000 -1.966207 2.642276 -1.611008 -19.306786 14.645548 19.451416 15.247973 16.199173 -4.168354 -1.348846 -12.480846 14.712073 -11.118988 2.264255 -12.506157 -4.984155 26.177139 3.444971 1.822016 -21.290937 -0.865956 11.261869 
-1.778483 51.629749 -0.416173 -5.705482 -2.252818 -16.829895 27.307070 4.086174 -0.518113 -0.751331 4.592098 -4.941455 -9.880623 -2.394606 0.362197 9.575992 -3.101143 16.401428 -6.322543 -11.822477 -0.616458 -59.450138 2.291688 -5.382371 -21.439367 -5.000000 37.303268 -25.953947 -3.441280 20.737520 1.580584 14.514002 -0.764391 66.500664 9.849846 17.780554 81.002716 -5.000000 -2.512391 6.596143 -2.090263 -19.325245 13.891430 19.400953 16.622860 20.158525 -3.311085 -1.299274 -12.291971 15.620614 -11.211857 1.667984 -12.414637 -2.588114 26.392864 3.660308 1.990489 -21.315172 -0.376530 11.716572 
-1.943130 51.644016 -0.243682 -5.869456 -2.306536 -19.792109 27.706348 4.332348 -0.617803 -0.539637 4.893452 -5.237020 -9.880024 -2.298051 0.347601 9.366296 -3.760647 19.320023 -6.402732 -12.007767 -0.626015 -58.760452 2.238698 -5.631433 -22.427032 -5.000000 36.908470 -26.367405 -3.437094 21.649475 1.673806 14.894320 -0.786545 65.594460 10.762894 18.766464 78.277000 -5.000000 -3.028959 12.351412 -2.713221 -18.920038 12.526695 19.197050 17.517776 25.104610 -2.286288 -1.062965 -11.535108 16.306597 -11.394160 1.141947 -12.764843 -0.793239 26.560322 3.792809 2.109054 -21.113768 0.736871 12.291665 
-2.107777 51.658287 -0.071193 -6.018990 -2.368865 -22.745274 28.103195 4.568318 -0.743473 -0.329823 5.194646 -5.531856 -9.869684 -2.201495 0.333003 9.119931 -4.403592 22.237020 -6.484940 -12.182200 -0.646609 -58.051594 2.177438 -5.891686 -23.424561 -5.000000 36.501106 -26.785606 -3.421231 22.560051 1.776949 15.274633 -0.806216 64.701134 11.697536 19.738148 75.568512 -5.000000 -3.406987 18.095840 -3.388655 -18.559504 11.156109 19.008860 18.389921 30.079918 -1.301246 -0.713156 -10.812060 17.008280 -11.585103 0.634482 -13.086607 1.005964 26.677525 3.934400 2.206851 -20.968664 1.821594 12.858744 
-2.188099 51.679619 0.149572 -6.204870 -2.407482 -25.893841 28.582060 4.871551 -0.644319 -0.200550 5.214363 -5.444125 -9.537558 -2.251235 0.330654 9.182733 -4.898575 24.734476 -6.746258 -11.977363 -0.633993 -57.242485 2.023258 -5.907845 -24.742126 -5.000000 36.027512 -26.349182 -3.522311 23.466164 1.925152 15.391654 -0.814854 63.489948 12.147217 19.330734 72.679787 -5.000000 -3.435361 22.809767 -3.574744 -19.271442 9.252747 19.077032 18.450840 35.524883 -0.667668 -0.307762 -7.631263 16.431273 -11.615019 -0.018636 -13.516689 3.399815 26.859083 4.174145 2.341386 -20.933704 2.505034 13.300921 
-2.268419 51.700974 0.370335 -6.398720 -2.459310 -29.043072 29.050219 5.161496 -0.559934 -0.071250 5.234079 -5.366162 -9.195268 -2.302437 0.318657 9.221393 -5.396574 27.229549 -7.007510 -11.762774 -0.622927 -56.422844 1.865662 -5.921036 -26.063883 -5.000000 35.544071 -25.917892 -3.650587 24.374409 2.083281 15.518425 -0.821420 62.280525 12.590661 18.909275 69.802139 -5.000000 -3.236936 27.529427 -3.606568 -19.946863 7.370380 19.128147 18.519175 40.966568 -0.073268 0.180178 -4.532284 15.842424 -11.626201 -0.682733 -13.942175 5.811802 27.026190 4.428123 2.507484 -20.929262 3.129829 13.709791 
-2.267047 51.713760 0.630061 -6.705529 -2.234603 -32.078335 29.622490 5.200465 -0.578032 0.035067 5.254175 -5.219234 -9.039272 -2.419766 0.326528 9.220311 -5.856166 29.464842 -7.141110 -11.479942 -0.608332 -55.384602 1.581664 -5.751630 -27.746662 -5.000000 34.576916 -26.118732 -3.516569 25.821161 2.289750 15.430271 -0.826281 60.592464 12.760118 17.604527 67.655762 -4.615442 -2.513704 30.996420 -4.137469 -20.673756 5.419213 19.003450 18.179209 45.803616 -0.006021 0.176042 -0.661694 14.527097 -11.159774 -1.492894 -14.711239 8.122231 27.400003 4.623850 2.649109 -21.007830 3.815012 13.994322 
-2.211212 51.720860 0.915759 -7.130357 -1.823524 -35.030151 30.259441 5.050814 -0.697520 0.115767 5.274466 -5.013879 -9.010888 -2.574254 0.349885 9.189152 -6.294019 31.529970 -7.205709 -11.128856 -0.588309 -54.218895 1.191490 -5.468087 -29.691412 -5.000000 33.296154 -26.738157 -3.171293 27.649883 2.540467 15.215694 -0.815169 58.591404 12.689810 15.702716 65.946709 -1.576219 -1.408944 33.668896 -5.013916 -21.475822 3.417376 18.720030 17.555414 50.201336 -0.270757 -0.199907 3.785877 12.875192 -10.286306 -2.429336 -15.745577 10.354479 27.921659 4.818289 2.824320 -21.138304 4.511090 14.190846 
-2.137296 51.723682 1.213627 -7.535305 -1.449569 -37.865971 30.887150 4.961208 -0.802678 0.204525 5.294627 -4.847506 -8.991752 -2.710894 0.360675 9.076589 -6.707875 33.490925 -7.289664 -10.748508 -0.568698 -53.033581 0.798556 -5.209970 -31.640610 -5.000000 31.907434 -27.304602 -2.927529 29.127731 2.761654 14.981613 -0.800510 56.395161 12.586483 13.786843 64.329582 1.285881 -0.158354 36.177490 -5.851860 -22.093037 1.461990 18.489645 16.963701 54.314392 -0.506153 -0.606756 7.299612 11.214491 -9.347396 -3.406920 -16.706665 12.541243 28.397396 4.995000 2.963207 -21.714624 5.089871 14.442449 
-1.991058 51.709438 1.560179 -7.776015 -1.163284 -40.224888 31.535095 5.059977 -0.846188 0.301466 5.295120 -4.720069 -9.060733 -2.807450 0.375271 8.713582 -7.055226 35.019367 -7.509246 -10.241357 -0.540772 -51.798523 0.387508 -5.017216 -33.482517 -5.000000 30.165260 -27.633997 -3.175550 29.306870 2.904635 14.737796 -0.787897 53.378296 12.496305 11.749134 63.281143 3.676243 1.052409 37.881943 -6.934740 -21.930799 -0.430230 18.573708 16.458826 57.229900 -0.760969 -1.157670 7.522981 9.132364 -8.790836 -4.323255 -17.533888 14.328077 28.693918 5.111138 3.084538 -24.117071 4.940527 14.799572 
-1.844819 51.695202 1.906730 -8.034885 -0.884460 -42.584511 32.191872 5.164781 -0.897588 0.397503 5.295550 -4.612122 -9.119906 -2.894349 0.388407 8.335717 -7.395480 36.563110 -7.728992 -9.724454 -0.514122 -50.561577 -0.037119 -4.836740 -35.327080 -5.000000 28.444798 -27.959604 -3.414320 29.484659 3.037778 14.484232 -0.774763 50.361076 12.301631 9.729701 62.167454 5.000000 2.355121 39.587242 -8.015259 -21.798326 -2.295678 18.618349 15.953237 60.106354 -0.956940 -1.703737 7.730247 7.049082 -8.236927 -5.290028 -18.345230 16.144047 29.026726 5.247977 3.214070 -26.514446 4.796835 15.207423 
-1.647931 51.676388 2.300457 -8.094514 -0.648392 -44.447052 32.756557 5.514187 -0.920465 0.543752 5.363479 -4.729916 -9.268130 -3.066686 0.424839 7.827012 -7.660183 37.708046 -7.998673 -9.305061 -0.492467 -49.131428 -0.299806 -4.855923 -36.721519 -5.000000 26.897566 -27.454508 -4.052618 28.146423 3.207927 14.074627 -0.751141 46.884808 12.313353 8.007914 61.337509 5.000000 3.212263 40.709354 -9.216088 -21.347624 -3.965070 18.906330 15.713108 61.409691 -1.026758 -1.920072 6.428320 6.309552 -8.139329 -6.169147 -19.078480 17.550343 29.045219 5.423426 3.315947 -25.407372 5.428636 15.390038 
